<svg width="20" height="20" viewBox="0 0 20 20" fill="none" xmlns="http://www.w3.org/2000/svg">
<path d="M9.53623 0C4.2781 0 0 4.2781 0 9.53623C0 14.7944 4.2781 19.0725 9.53623 19.0725C14.7944 19.0725 19.0725 14.7944 19.0725 9.53623C19.0725 4.2781 14.7944 0 9.53623 0ZM7.09057 2.93423H11.9805C14.2728 2.93423 16.1382 4.79894 16.1382 7.09057V11.9805C16.1382 14.2728 14.2735 16.1382 11.9819 16.1382H7.092C4.79964 16.1382 2.93423 14.2735 2.93423 11.9819V7.092C2.93423 4.79964 4.79894 2.93423 7.09057 2.93423ZM7.09057 4.40134C5.60805 4.40134 4.40134 5.60875 4.40134 7.092V11.9819C4.40134 13.4644 5.60875 14.6711 7.092 14.6711H11.9819C13.4644 14.6711 14.6711 13.4637 14.6711 11.9805V7.09057C14.6711 5.60805 13.4637 4.40134 11.9805 4.40134H7.09057ZM12.9605 5.62345C13.2304 5.62345 13.449 5.84207 13.449 6.11201C13.449 6.38196 13.2304 6.60201 12.9605 6.60201C12.6905 6.60201 12.4705 6.38196 12.4705 6.11201C12.4705 5.84207 12.6905 5.62345 12.9605 5.62345ZM9.53623 5.86845C11.5586 5.86845 13.204 7.51382 13.204 9.53623C13.204 11.5586 11.5586 13.204 9.53623 13.204C7.51382 13.204 5.86845 11.5586 5.86845 9.53623C5.86845 7.51382 7.51382 5.86845 9.53623 5.86845ZM9.53623 7.33556C8.95258 7.33556 8.39283 7.56742 7.98012 7.98012C7.56742 8.39283 7.33556 8.95258 7.33556 9.53623C7.33556 10.1199 7.56742 10.6796 7.98012 11.0923C8.39283 11.505 8.95258 11.7369 9.53623 11.7369C10.1199 11.7369 10.6796 11.505 11.0923 11.0923C11.505 10.6796 11.7369 10.1199 11.7369 9.53623C11.7369 8.95258 11.505 8.39283 11.0923 7.98012C10.6796 7.56742 10.1199 7.33556 9.53623 7.33556Z" fill="#28282B"/>
</svg>
