<svg width="20" height="20" viewBox="0 0 20 20" fill="none" xmlns="http://www.w3.org/2000/svg">
<path d="M10.4637 0C5.19734 0 0.92749 4.26985 0.92749 9.53623C0.92749 13.5764 3.44108 17.0269 6.98856 18.4161C6.90512 17.6619 6.82962 16.504 7.02194 15.6807C7.19518 14.9369 8.14006 10.9404 8.14006 10.9404C8.14006 10.9404 7.85477 10.3691 7.85477 9.52511C7.85477 8.19878 8.62323 7.20939 9.58003 7.20939C10.3938 7.20939 10.7864 7.82051 10.7864 8.55241C10.7864 9.37094 10.2658 10.594 9.99645 11.7272C9.77155 12.6768 10.4725 13.4509 11.4086 13.4509C13.1037 13.4509 14.4062 11.6636 14.4062 9.08406C14.4062 6.80092 12.7659 5.2044 10.4232 5.2044C7.71014 5.2044 6.11758 7.23959 6.11758 9.34312C6.11758 10.1624 6.43307 11.0414 6.82724 11.5198C6.90512 11.6143 6.91624 11.697 6.8932 11.7931C6.82088 12.0943 6.66036 12.742 6.62857 12.8747C6.58724 13.0495 6.49029 13.0861 6.3099 13.0019C5.11866 12.4472 4.37404 10.706 4.37404 9.30736C4.37404 6.29948 6.55943 3.53635 10.6751 3.53635C13.9834 3.53635 16.5542 5.89339 16.5542 9.04432C16.5542 12.3311 14.4817 14.9759 11.6057 14.9759C10.6393 14.9759 9.73102 14.4736 9.4203 13.8808C9.4203 13.8808 8.9419 15.7014 8.82587 16.148C8.61051 16.9761 8.0296 18.0147 7.6402 18.6481C8.53264 18.9231 9.4807 19.0725 10.4637 19.0725C15.7301 19.0725 20 14.8026 20 9.53623C20 4.26985 15.7301 0 10.4637 0Z" fill="#28282B"/>
</svg>
