<svg width="40" height="40" viewBox="0 0 40 40" fill="none" xmlns="http://www.w3.org/2000/svg">
<path d="M27.756 27.2277H22.4095C22.1125 27.2277 21.8814 26.9967 21.8814 26.6997V13.3003C21.8814 13.0033 22.1125 12.7723 22.4095 12.7723H27.36C31.0563 12.7723 31.8484 14.9505 31.8484 16.7987C31.8484 17.8548 31.5514 18.7129 31.0233 19.3069C32.3765 19.868 33.1026 21.1221 33.1026 22.9703C33.1026 25.6106 31.0894 27.2277 27.756 27.2277ZM20.0002 27.2277H8.91114C8.61411 27.2277 8.38308 26.9967 8.38308 26.6997V13.3003C8.38308 13.0033 8.61411 12.7723 8.91114 12.7723H14.0927C17.327 12.7723 19.2412 14.5215 19.2412 17.4257C19.2412 19.3729 18.2511 20.8911 16.6999 21.5182L20.3963 26.3366C20.5943 26.5677 20.5613 26.8977 20.3303 27.0957C20.2643 27.1617 20.1323 27.2277 20.0002 27.2277ZM20.0002 0C8.94414 0 0.000244141 8.9439 0.000244141 20C0.000244141 31.0561 8.94414 40 20.0002 40C31.0564 40 40.0002 31.0561 40.0002 20C40.0002 8.9439 31.0564 0 20.0002 0Z" fill="#E41321"/>
</svg>
